{"accessors":[{"bufferView":0,"byteOffset":0,"componentType":5126,"count":1834,"max":[-0.465995,-0.46462,-0.316463],"min":[-1.249583,-0.5,-0.539085],"type":"VEC3"},{"bufferView":0,"byteOffset":22008,"componentType":5126,"count":1834,"max":[1.0,0.998,1.0],"min":[-1.0,-0.998,-1.0],"type":"VEC3"},{"bufferView":0,"byteOffset":44016,"componentType":5126,"count":1834,"max":[1.0,1.0],"min":[0.0,0.0],"type":"VEC2"},{"bufferView":1,"byteOffset":0,"componentType":5123,"count":10020,"max":[1833],"min":[0],"type":"SCALAR"},{"bufferView":0,"byteOffset":58688,"componentType":5126,"count":48835,"max":[0.540496,0.518171,0.540523],"min":[-0.540496,-0.497282,-0.455658],"type":"VEC3"},{"bufferView":0,"byteOffset":644708,"componentType":5126,"count":48835,"max":[1.0,1.0,1.0],"min":[-1.0,-1.0,-1.0],"type":"VEC3"},{"bufferView":0,"byteOffset":1230728,"componentType":5126,"count":48835,"max":[0.9653,1.001],"min":[0.0359,0.0108],"type":"VEC2"},{"bufferView":1,"byteOffset":20040,"componentType":5123,"count":286836,"max":[48834],"min":[0],"type":"SCALAR"},{"bufferView":0,"byteOffset":1621408,"componentType":5126,"count":2457,"max":[0.35625,0.416337,0.35625],"min":[-0.35625,-0.296162,-0.35625],"type":"VEC3"},{"bufferView":0,"byteOffset":1650892,"componentType":5126,"count":2457,"max":[1.0,1.0,1.0],"min":[-1.0,-1.0,-1.0],"type":"VEC3"},{"bufferView":0,"byteOffset":1680376,"componentType":5126,"count":2457,"max":[1.0,1.0],"min":[0.0,0.0],"type":"VEC2"},{"bufferView":1,"byteOffset":593712,"componentType":5123,"count":13332,"max":[2456],"min":[0],"type":"SCALAR"}],"asset":{"generator":"qtek fbx2gltf","version":"2.0"},"bufferViews":[{"buffer":0,"byteLength":1700032,"byteOffset":0,"byteStride":0,"target":34962},{"buffer":0,"byteLength":620376,"byteOffset":1700032,"byteStride":0,"target":34963}],"buffers":[{"byteLength":2320408,"uri":"testObj.bin"}],"extensionsUsed":["KHR_materials_common"],"materials":[{"extensions":{"KHR_materials_common":{"technique":"BLINN","type":"commonBlinn","values":{"ambient":[0.1,0.1,0.1],"diffuse":[0.25,0.25,0.25],"emission":[0.0,0.0,0.0],"shininess":200.0,"specular":[0.5,0.5,0.5]}}},"name":"LTELogo"},{"extensions":{"KHR_materials_common":{"technique":"BLINN","type":"commonBlinn","values":{"ambient":[0.05,0.05,0.05],"diffuse":[0.1,0.04,0.01],"emission":[0.0,0.0,0.0],"shininess":9.803922,"specular":[0.1,0.1,0.1]}}},"name":"OuterMat"},{"extensions":{"KHR_materials_common":{"technique":"BLINN","type":"commonBlinn","values":{"ambient":[0.1,0.1,0.1],"diffuse":[0.2,0.2,0.2],"emission":[0.0,0.0,0.0],"shininess":5.882353,"specular":[0.3,0.3,0.3]}}},"name":"InnerMat"}],"meshes":[{"name":"default_Material0","primitives":[{"attributes":{"NORMAL":1,"POSITION":0,"TEXCOORD_0":2},"indices":3,"material":0},{"attributes":{"NORMAL":5,"POSITION":4,"TEXCOORD_0":6},"indices":7,"material":1},{"attributes":{"NORMAL":9,"POSITION":8,"TEXCOORD_0":10},"indices":11,"material":2}]}],"nodes":[{"children":[1],"matrix":[1.0,0.0,0.0,0.0,0.0,1.0,0.0,0.0,0.0,0.0,1.0,0.0,0.0,0.0,0.0,1.0],"name":"testObj_root"},{"matrix":[1.0,0.0,0.0,0.0,0.0,1.0,0.0,0.0,0.0,0.0,1.0,0.0,0.0,0.0,0.0,1.0],"mesh":0,"name":"default"}],"scene":0,"scenes":[{"nodes":[0]}]}